<svg width="20" height="20" viewBox="0 0 20 20" fill="none" xmlns="http://www.w3.org/2000/svg">
<path d="M4 4.50598C4 4.10816 4.15804 3.72663 4.43934 3.44532C4.72064 3.16402 5.10218 3.00598 5.5 3.00598H14.5C14.8978 3.00598 15.2794 3.16402 15.5607 3.44532C15.842 3.72663 16 4.10816 16 4.50598V16.506C16 16.9038 15.842 17.2853 15.5607 17.5666C15.2794 17.8479 14.8978 18.006 14.5 18.006H5.5C5.10218 18.006 4.72064 17.8479 4.43934 17.5666C4.15804 17.2853 4 16.9038 4 16.506V4.50598Z" fill="url(#paint0_linear_12_56)"/>
<path d="M4 4.50598C4 4.10816 4.15804 3.72663 4.43934 3.44532C4.72064 3.16402 5.10218 3.00598 5.5 3.00598H14.5C14.8978 3.00598 15.2794 3.16402 15.5607 3.44532C15.842 3.72663 16 4.10816 16 4.50598V16.506C16 16.9038 15.842 17.2853 15.5607 17.5666C15.2794 17.8479 14.8978 18.006 14.5 18.006H5.5C5.10218 18.006 4.72064 17.8479 4.43934 17.5666C4.15804 17.2853 4 16.9038 4 16.506V4.50598Z" fill="url(#paint1_radial_12_56)" fill-opacity="0.7"/>
<path d="M4 4.50598C4 4.10816 4.15804 3.72663 4.43934 3.44532C4.72064 3.16402 5.10218 3.00598 5.5 3.00598H14.5C14.8978 3.00598 15.2794 3.16402 15.5607 3.44532C15.842 3.72663 16 4.10816 16 4.50598V16.506C16 16.9038 15.842 17.2853 15.5607 17.5666C15.2794 17.8479 14.8978 18.006 14.5 18.006H5.5C5.10218 18.006 4.72064 17.8479 4.43934 17.5666C4.15804 17.2853 4 16.9038 4 16.506V4.50598Z" fill="url(#paint2_radial_12_56)" fill-opacity="0.4"/>
<path d="M7 3.5C7 3.89782 7.15804 4.27936 7.43934 4.56066C7.72064 4.84196 8.10218 5 8.5 5H11.5C11.8978 5 12.2794 4.84196 12.5607 4.56066C12.842 4.27936 13 3.89782 13 3.5C13 3.10218 12.842 2.72064 12.5607 2.43934C12.2794 2.15804 11.8978 2 11.5 2H8.5C8.10218 2 7.72064 2.15804 7.43934 2.43934C7.15804 2.72064 7 3.10218 7 3.5Z" fill="url(#paint3_linear_12_56)"/>
<path d="M12.854 9.85402C12.9479 9.76013 13.0006 9.6328 13.0006 9.50002C13.0006 9.36725 12.9479 9.23991 12.854 9.14602C12.7601 9.05213 12.6328 8.99939 12.5 8.99939C12.3672 8.99939 12.2399 9.05213 12.146 9.14602L9 12.293L7.854 11.146C7.80751 11.0995 7.75232 11.0627 7.69158 11.0375C7.63084 11.0123 7.56574 10.9994 7.5 10.9994C7.43425 10.9994 7.36915 11.0123 7.30841 11.0375C7.24768 11.0627 7.19249 11.0995 7.146 11.146C7.09951 11.1925 7.06263 11.2477 7.03748 11.3084C7.01232 11.3692 6.99937 11.4343 6.99937 11.5C6.99937 11.5658 7.01232 11.6309 7.03748 11.6916C7.06263 11.7523 7.09951 11.8075 7.146 11.854L8.646 13.354C8.69244 13.4006 8.74762 13.4375 8.80837 13.4627C8.86911 13.4879 8.93423 13.5009 9 13.5009C9.06577 13.5009 9.13089 13.4879 9.19163 13.4627C9.25238 13.4375 9.30755 13.4006 9.354 13.354L12.854 9.85402Z" fill="url(#paint4_linear_12_56)" fill-opacity="0.9"/>
<defs>
<linearGradient id="paint0_linear_12_56" x1="4" y1="4.50598" x2="16" y2="18.006" gradientUnits="userSpaceOnUse">
<stop stop-color="#36DFF1"/>
<stop offset="1" stop-color="#0094F0"/>
</linearGradient>
<radialGradient id="paint1_radial_12_56" cx="0" cy="0" r="1" gradientUnits="userSpaceOnUse" gradientTransform="translate(10 2.17298) rotate(90) scale(5.14077 4.64062)">
<stop stop-color="#0A1852"/>
<stop offset="0.97" stop-color="#0A1852" stop-opacity="0"/>
</radialGradient>
<radialGradient id="paint2_radial_12_56" cx="0" cy="0" r="1" gradientUnits="userSpaceOnUse" gradientTransform="translate(10 3.73998) rotate(90) scale(2.30574 3.67969)">
<stop stop-color="#0A1852"/>
<stop offset="1" stop-color="#0A1852" stop-opacity="0"/>
</radialGradient>
<linearGradient id="paint3_linear_12_56" x1="10" y1="2" x2="10" y2="5" gradientUnits="userSpaceOnUse">
<stop stop-color="#FFE06B"/>
<stop offset="1" stop-color="#FAB500"/>
</linearGradient>
<linearGradient id="paint4_linear_12_56" x1="15" y1="16.5" x2="7.55" y2="5.90902" gradientUnits="userSpaceOnUse">
<stop stop-color="#9DEAFF"/>
<stop offset="1" stop-color="white"/>
</linearGradient>
</defs>
</svg>
